<!DOCTYPE svg PUBLIC "-//W3C//DTD SVG 1.1//EN" "http://www.w3.org/Graphics/SVG/1.1/DTD/svg11.dtd">
<!-- Uploaded to: SVG Repo, www.svgrepo.com, Transformed by: SVG Repo Mixer Tools -->
<svg width="184px" height="184px" viewBox="-17.04 -17.04 58.08 58.08" fill="none" xmlns="http://www.w3.org/2000/svg" stroke="#c3acd0">
<g id="SVGRepo_bgCarrier" stroke-width="0"/>
<g id="SVGRepo_tracerCarrier" stroke-linecap="round" stroke-linejoin="round" stroke="#c3aceCCCCCC" stroke-width="0.672"> <path d="M6.73 19.7C7.55 18.82 8.8 18.89 9.52 19.85L10.53 21.2C11.34 22.27 12.65 22.27 13.46 21.2L14.47 19.85C15.19 18.89 16.44 18.82 17.26 19.7C19.04 21.6 20.49 20.97 20.49 18.31V7.04C20.5 3.01 19.56 2 15.78 2H8.22C4.44 2 3.5 3.01 3.5 7.04V18.3C3.5 20.97 4.96 21.59 6.73 19.7Z" stroke="#c3ace" stroke-width="0.43200000000000005" stroke-linecap="round" stroke-linejoin="round"/> <path opacity="0.4" d="M9 13L15 7" stroke="#c3ace" stroke-width="0.43200000000000005" stroke-linecap="round" stroke-linejoin="round"/> <path opacity="0.4" d="M14.9945 13H15.0035" stroke="#c3ace" stroke-width="0.43200000000000005" stroke-linecap="round" stroke-linejoin="round"/> <path opacity="0.4" d="M8.99451 7.5H9.00349" stroke="#c3ace" stroke-width="0.43200000000000005" stroke-linecap="round" stroke-linejoin="round"/> </g>
<g id="SVGRepo_iconCarrier"> <path d="M6.73 19.7C7.55 18.82 8.8 18.89 9.52 19.85L10.53 21.2C11.34 22.27 12.65 22.27 13.46 21.2L14.47 19.85C15.19 18.89 16.44 18.82 17.26 19.7C19.04 21.6 20.49 20.97 20.49 18.31V7.04C20.5 3.01 19.56 2 15.78 2H8.22C4.44 2 3.5 3.01 3.5 7.04V18.3C3.5 20.97 4.96 21.59 6.73 19.7Z" stroke="#c3ace" stroke-width="0.00024000000000000003" stroke-linecap="round" stroke-linejoin="round"/> <path opacity="0.4" d="M9 13L15 7" stroke="#c3ace" stroke-width="0.00024000000000000003" stroke-linecap="round" stroke-linejoin="round"/> <path opacity="0.4" d="M14.9945 13H15.0035" stroke="#c3ace" stroke-width="0.00024000000000000003" stroke-linecap="round" stroke-linejoin="round"/> <path opacity="0.4" d="M8.99451 7.5H9.00349" stroke="#c3ace" stroke-width="0.00024000000000000003" stroke-linecap="round" stroke-linejoin="round"/> </g>
</svg>